# xmcd CD database file
#
# Track frame offsets:
#	150
#	16767
#	32869
#	52364
#	71978
#	105685
#	133566
#	161737
#	182069
#	201834
#	222762
#
# Disc length: 3196 seconds
#
# Revision: 1
# Processed by: cddbd v1.4PL0 Copyright (c) Steve Scherf et al.
# Submitted via: CDex 1.40Release
#
DISCID=a50c7a0b
DTITLE=Pat Travers - Don't Feed The Alligators
DYEAR=2000
DGENRE=Blues
TTITLE0=Black Friday
TTITLE1=I Can Hear You Calling
TTITLE2=Crosstown Traffic
TTITLE3=Spanish Moon
TTITLE4=Freedom
TTITLE5=I Love You More Than You'll Ever Know
TTITLE6=Don't Change Horses
TTITLE7=I'm Bad, I'm Nationwide
TTITLE8=Nothing Is Easy
TTITLE9=Them Changes
TTITLE10=Delta Lady
EXTD=YEAR: 2000 ID3G: 0
EXTT0=
EXTT1=
EXTT2=
EXTT3=
EXTT4=
EXTT5=
EXTT6=
EXTT7=
EXTT8=
EXTT9=
EXTT10=
PLAYORDER=
